<?xml version="1.0" encoding="UTF-8" standalone="no"?>
<svg
   width="3840"
   height="2160"
   viewBox="0 0 3840 2160"
   version="1.1"
   id="svg89"
   xml:space="preserve"
   xmlns="http://www.w3.org/2000/svg"
   xmlns:svg="http://www.w3.org/2000/svg"><defs
     id="defs89" /><style
     id="style1">&#10;    rect { stroke: none; fill-opacity: 0.25; }&#10;    text { font-family: Arial, sans-serif; font-size: 10px; fill: black; text-anchor: middle; dominant-baseline: middle; pointer-events: none; }&#10;  </style><g
     id="MultiplayerLoadScreen.wnd:ParentMultiplayerLoadScreen"
     style="display:inline"><rect
       x="0"
       y="0"
       width="3840"
       height="2160"
       fill="#21ce64"
       id="rect1" /><image
       href="mp_loaduserinterface_00b.png"
       x="0"
       y="0"
       width="3840"
       height="2160"
       id="image1"
       style="display:inline" /></g><g
     id="MultiplayerLoadScreen.wnd:AutoLabel_1"><rect
       x="206"
       y="160"
       width="3432"
       height="1844"
       fill="#8d376b"
       id="rect2" /></g><g
     id="MultiplayerLoadScreen.wnd:StaticTextProgressTitle"><rect
       x="2852.41212"
       y="1190.01335"
       width="710.85436"
       height="90.15025"
       fill="#62f8c2"
       id="rect3" /></g><g
     id="MultiplayerLoadScreen.wnd:ProgressLoad1"><rect
       x="2852.41212"
       y="1388.03286"
       width="710.85436"
       height="65.87559999999999"
       fill="#e5c75d"
       id="rect4" /><image
       href="extracted_images/Alpha.png"
       x="596"
       y="387"
       width="148"
       height="20"
       id="image4"
       transform="matrix(4.80307 0 0 3.29378 -10.2176 113.34)" /><image
       href="extracted_images/Alpha.png"
       x="596"
       y="387"
       width="148"
       height="20"
       id="image5"
       transform="matrix(4.80307 0 0 3.29378 -10.2176 113.34)" /><image
       href="extracted_images/Alpha.png"
       x="596"
       y="387"
       width="148"
       height="20"
       id="image6"
       transform="matrix(4.80307 0 0 3.29378 -10.2176 113.34)" /><image
       href="extracted_images/LoadingBar_DePowered.png"
       x="596"
       y="387"
       width="148"
       height="20"
       id="image7"
       transform="matrix(4.80307 0 0 3.29378 -10.2176 113.34)" /><image
       href="extracted_images/LoadingBar_Progress.png"
       x="596"
       y="387"
       width="148"
       height="20"
       id="image8"
       transform="matrix(4.80307 0 0 3.29378 -10.2176 113.34)" /></g><g
     id="MultiplayerLoadScreen.wnd:ProgressLoad2"><rect
       x="2852.41212"
       y="1467.08358"
       width="710.85436"
       height="65.87559999999999"
       fill="#2b56a9"
       id="rect8" /><image
       href="extracted_images/Alpha.png"
       x="596"
       y="411"
       width="148"
       height="20"
       id="image9"
       transform="matrix(4.80307 0 0 3.29378 -10.2176 113.34)" /><image
       href="extracted_images/Alpha.png"
       x="596"
       y="411"
       width="148"
       height="20"
       id="image10"
       transform="matrix(4.80307 0 0 3.29378 -10.2176 113.34)" /><image
       href="extracted_images/Alpha.png"
       x="596"
       y="411"
       width="148"
       height="20"
       id="image11"
       transform="matrix(4.80307 0 0 3.29378 -10.2176 113.34)" /><image
       href="extracted_images/LoadingBar_DePowered.png"
       x="596"
       y="411"
       width="148"
       height="20"
       id="image12"
       transform="matrix(4.80307 0 0 3.29378 -10.2176 113.34)" /><image
       href="extracted_images/LoadingBar_Progress.png"
       x="596"
       y="411"
       width="148"
       height="20"
       id="image13"
       transform="matrix(4.80307 0 0 3.29378 -10.2176 113.34)" /></g><g
     id="MultiplayerLoadScreen.wnd:ProgressLoad0"><rect
       x="2852.41212"
       y="1308.98214"
       width="710.85436"
       height="65.87559999999999"
       fill="#d7ba87"
       id="rect13" /><image
       href="extracted_images/Alpha.png"
       x="596"
       y="363"
       width="148"
       height="20"
       id="image14"
       transform="matrix(4.80307 0 0 3.29378 -10.2176 113.34)" /><image
       href="extracted_images/Alpha.png"
       x="596"
       y="363"
       width="148"
       height="20"
       id="image15"
       transform="matrix(4.80307 0 0 3.29378 -10.2176 113.34)" /><image
       href="extracted_images/Alpha.png"
       x="596"
       y="363"
       width="148"
       height="20"
       id="image16"
       transform="matrix(4.80307 0 0 3.29378 -10.2176 113.34)" /><image
       href="extracted_images/LoadingBar_DePowered.png"
       x="596"
       y="363"
       width="148"
       height="20"
       id="image17"
       transform="matrix(4.80307 0 0 3.29378 -10.2176 113.34)" /><image
       href="extracted_images/LoadingBar_Progress.png"
       x="596"
       y="363"
       width="148"
       height="20"
       id="image18"
       transform="matrix(4.80307 0 0 3.29378 -10.2176 113.34)" /></g><g
     id="MultiplayerLoadScreen.wnd:ProgressLoad5"><rect
       x="2852.41212"
       y="1704.2357399999999"
       width="710.85436"
       height="65.87559999999999"
       fill="#c8970f"
       id="rect18" /><image
       href="extracted_images/Alpha.png"
       x="596"
       y="483"
       width="148"
       height="20"
       id="image19"
       transform="matrix(4.80307 0 0 3.29378 -10.2176 113.34)" /><image
       href="extracted_images/Alpha.png"
       x="596"
       y="483"
       width="148"
       height="20"
       id="image20"
       transform="matrix(4.80307 0 0 3.29378 -10.2176 113.34)" /><image
       href="extracted_images/Alpha.png"
       x="596"
       y="483"
       width="148"
       height="20"
       id="image21"
       transform="matrix(4.80307 0 0 3.29378 -10.2176 113.34)" /><image
       href="extracted_images/LoadingBar_DePowered.png"
       x="596"
       y="483"
       width="148"
       height="20"
       id="image22"
       transform="matrix(4.80307 0 0 3.29378 -10.2176 113.34)" /><image
       href="extracted_images/LoadingBar_Progress.png"
       x="596"
       y="483"
       width="148"
       height="20"
       id="image23"
       transform="matrix(4.80307 0 0 3.29378 -10.2176 113.34)" /></g><g
     id="MultiplayerLoadScreen.wnd:ProgressLoad6"><rect
       x="2852.41212"
       y="1783.28646"
       width="710.85436"
       height="65.87559999999999"
       fill="#eb5f69"
       id="rect23" /><image
       href="extracted_images/Alpha.png"
       x="596"
       y="507"
       width="148"
       height="20"
       id="image24"
       transform="matrix(4.80307 0 0 3.29378 -10.2176 113.34)" /><image
       href="extracted_images/Alpha.png"
       x="596"
       y="507"
       width="148"
       height="20"
       id="image25"
       transform="matrix(4.80307 0 0 3.29378 -10.2176 113.34)" /><image
       href="extracted_images/Alpha.png"
       x="596"
       y="507"
       width="148"
       height="20"
       id="image26"
       transform="matrix(4.80307 0 0 3.29378 -10.2176 113.34)" /><image
       href="extracted_images/LoadingBar_DePowered.png"
       x="596"
       y="507"
       width="148"
       height="20"
       id="image27"
       transform="matrix(4.80307 0 0 3.29378 -10.2176 113.34)" /><image
       href="extracted_images/LoadingBar_Progress.png"
       x="596"
       y="507"
       width="148"
       height="20"
       id="image28"
       transform="matrix(4.80307 0 0 3.29378 -10.2176 113.34)" /></g><g
     id="MultiplayerLoadScreen.wnd:ProgressLoad4"><rect
       x="2852.41212"
       y="1625.18502"
       width="710.85436"
       height="65.87559999999999"
       fill="#6dfd3f"
       id="rect28" /><image
       href="extracted_images/Alpha.png"
       x="596"
       y="459"
       width="148"
       height="20"
       id="image29"
       transform="matrix(4.80307 0 0 3.29378 -10.2176 113.34)" /><image
       href="extracted_images/Alpha.png"
       x="596"
       y="459"
       width="148"
       height="20"
       id="image30"
       transform="matrix(4.80307 0 0 3.29378 -10.2176 113.34)" /><image
       href="extracted_images/Alpha.png"
       x="596"
       y="459"
       width="148"
       height="20"
       id="image31"
       transform="matrix(4.80307 0 0 3.29378 -10.2176 113.34)" /><image
       href="extracted_images/LoadingBar_DePowered.png"
       x="596"
       y="459"
       width="148"
       height="20"
       id="image32"
       transform="matrix(4.80307 0 0 3.29378 -10.2176 113.34)" /><image
       href="extracted_images/LoadingBar_Progress.png"
       x="596"
       y="459"
       width="148"
       height="20"
       id="image33"
       transform="matrix(4.80307 0 0 3.29378 -10.2176 113.34)" /></g><g
     id="MultiplayerLoadScreen.wnd:ProgressLoad3"><rect
       x="2852.41212"
       y="1546.1343"
       width="710.85436"
       height="65.87559999999999"
       fill="#3c2378"
       id="rect33" /><image
       href="extracted_images/Alpha.png"
       x="596"
       y="435"
       width="148"
       height="20"
       id="image34"
       transform="matrix(4.80307 0 0 3.29378 -10.2176 113.34)" /><image
       href="extracted_images/Alpha.png"
       x="596"
       y="435"
       width="148"
       height="20"
       id="image35"
       transform="matrix(4.80307 0 0 3.29378 -10.2176 113.34)" /><image
       href="extracted_images/Alpha.png"
       x="596"
       y="435"
       width="148"
       height="20"
       id="image36"
       transform="matrix(4.80307 0 0 3.29378 -10.2176 113.34)" /><image
       href="extracted_images/LoadingBar_DePowered.png"
       x="596"
       y="435"
       width="148"
       height="20"
       id="image37"
       transform="matrix(4.80307 0 0 3.29378 -10.2176 113.34)" /><image
       href="extracted_images/LoadingBar_Progress.png"
       x="596"
       y="435"
       width="148"
       height="20"
       id="image38"
       transform="matrix(4.80307 0 0 3.29378 -10.2176 113.34)" /></g><g
     id="MultiplayerLoadScreen.wnd:ProgressLoad7"><rect
       x="2852.41212"
       y="1862.33718"
       width="710.85436"
       height="65.87559999999999"
       fill="#cf9c8b"
       id="rect38" /><image
       href="extracted_images/Alpha.png"
       x="596"
       y="531"
       width="148"
       height="20"
       id="image39"
       transform="matrix(4.80307 0 0 3.29378 -10.2176 113.34)" /><image
       href="extracted_images/Alpha.png"
       x="596"
       y="531"
       width="148"
       height="20"
       id="image40"
       transform="matrix(4.80307 0 0 3.29378 -10.2176 113.34)" /><image
       href="extracted_images/Alpha.png"
       x="596"
       y="531"
       width="148"
       height="20"
       id="image41"
       transform="matrix(4.80307 0 0 3.29378 -10.2176 113.34)" /><image
       href="extracted_images/LoadingBar_DePowered.png"
       x="596"
       y="531"
       width="148"
       height="20"
       id="image42"
       transform="matrix(4.80307 0 0 3.29378 -10.2176 113.34)" /><image
       href="extracted_images/LoadingBar_Progress.png"
       x="596"
       y="531"
       width="148"
       height="20"
       id="image43"
       transform="matrix(4.80307 0 0 3.29378 -10.2176 113.34)" /></g><g
     id="MultiplayerLoadScreen.wnd:StaticTextTeam0"><rect
       x="2545.01564"
       y="1308.98214"
       width="288.1842"
       height="65.87559999999999"
       fill="#38084f"
       id="rect43" /></g><g
     id="MultiplayerLoadScreen.wnd:StaticTextTeam1"><rect
       x="2545.01564"
       y="1388.03286"
       width="288.1842"
       height="65.87559999999999"
       fill="#991059"
       id="rect44" /></g><g
     id="MultiplayerLoadScreen.wnd:StaticTextTeam2"><rect
       x="2545.01564"
       y="1467.08358"
       width="288.1842"
       height="65.87559999999999"
       fill="#358cd6"
       id="rect45" /></g><g
     id="MultiplayerLoadScreen.wnd:StaticTextTeam3"><rect
       x="2545.01564"
       y="1546.1343"
       width="288.1842"
       height="65.87559999999999"
       fill="#aa84b0"
       id="rect46" /></g><g
     id="MultiplayerLoadScreen.wnd:StaticTextTeam4"><rect
       x="2545.01564"
       y="1625.18502"
       width="288.1842"
       height="65.87559999999999"
       fill="#194a6e"
       id="rect47" /></g><g
     id="MultiplayerLoadScreen.wnd:StaticTextTeam5"><rect
       x="2545.01564"
       y="1704.2357399999999"
       width="288.1842"
       height="65.87559999999999"
       fill="#98959d"
       id="rect48" /></g><g
     id="MultiplayerLoadScreen.wnd:StaticTextTeam6"><rect
       x="2545.01564"
       y="1783.28646"
       width="288.1842"
       height="65.87559999999999"
       fill="#405ed9"
       id="rect49" /></g><g
     id="MultiplayerLoadScreen.wnd:StaticTextTeam7"><rect
       x="2545.01564"
       y="1862.33718"
       width="288.1842"
       height="65.87559999999999"
       fill="#2c67dc"
       id="rect50" /></g><g
     id="MultiplayerLoadScreen.wnd:StaticTextPlayer0"><rect
       x="287.57274000000007"
       y="1308.98214"
       width="864.5526"
       height="65.87559999999999"
       fill="#573ea9"
       id="rect51" /></g><g
     id="MultiplayerLoadScreen.wnd:StaticTextPlayer1"><rect
       x="287.57274000000007"
       y="1388.03286"
       width="864.5526"
       height="65.87559999999999"
       fill="#c3d230"
       id="rect52" /></g><g
     id="MultiplayerLoadScreen.wnd:StaticTextPlayer2"><rect
       x="287.57274000000007"
       y="1467.08358"
       width="864.5526"
       height="65.87559999999999"
       fill="#e1ca8e"
       id="rect53" /></g><g
     id="MultiplayerLoadScreen.wnd:StaticTextPlayer3"><rect
       x="287.57274000000007"
       y="1546.1343"
       width="864.5526"
       height="65.87559999999999"
       fill="#9f2c98"
       id="rect54" /></g><g
     id="MultiplayerLoadScreen.wnd:StaticTextPlayer4"><rect
       x="287.57274000000007"
       y="1625.18502"
       width="864.5526"
       height="65.87559999999999"
       fill="#6296be"
       id="rect55" /></g><g
     id="MultiplayerLoadScreen.wnd:StaticTextPlayer5"><rect
       x="287.57274000000007"
       y="1704.2357399999999"
       width="864.5526"
       height="65.87559999999999"
       fill="#119bd1"
       id="rect56" /></g><g
     id="MultiplayerLoadScreen.wnd:StaticTextPlayer6"><rect
       x="287.57274000000007"
       y="1783.28646"
       width="864.5526"
       height="65.87559999999999"
       fill="#5d647c"
       id="rect57" /></g><g
     id="MultiplayerLoadScreen.wnd:StaticTextPlayer7"><rect
       x="287.57274000000007"
       y="1862.33718"
       width="864.5526"
       height="65.87559999999999"
       fill="#ce98b8"
       id="rect58" /></g><g
     id="MultiplayerLoadScreen.wnd:StaticTextSide0"><rect
       x="1171.33762"
       y="1308.98214"
       width="1354.46574"
       height="65.87559999999999"
       fill="#b1268d"
       id="rect59" /></g><g
     id="MultiplayerLoadScreen.wnd:StaticTextSide1"><rect
       x="1171.33762"
       y="1388.03286"
       width="1354.46574"
       height="65.87559999999999"
       fill="#64b55d"
       id="rect60" /></g><g
     id="MultiplayerLoadScreen.wnd:StaticTextSide2"><rect
       x="1171.33762"
       y="1467.08358"
       width="1354.46574"
       height="65.87559999999999"
       fill="#8ef9d0"
       id="rect61" /></g><g
     id="MultiplayerLoadScreen.wnd:StaticTextSide3"><rect
       x="1171.33762"
       y="1546.1343"
       width="1354.46574"
       height="65.87559999999999"
       fill="#d1a9b9"
       id="rect62" /></g><g
     id="MultiplayerLoadScreen.wnd:StaticTextSide4"><rect
       x="1171.33762"
       y="1625.18502"
       width="1354.46574"
       height="65.87559999999999"
       fill="#9885d8"
       id="rect63" /></g><g
     id="MultiplayerLoadScreen.wnd:StaticTextSide5"><rect
       x="1171.33762"
       y="1704.2357399999999"
       width="1354.46574"
       height="65.87559999999999"
       fill="#72eae4"
       id="rect64" /></g><g
     id="MultiplayerLoadScreen.wnd:StaticTextSide6"><rect
       x="1171.33762"
       y="1783.28646"
       width="1354.46574"
       height="65.87559999999999"
       fill="#94686d"
       id="rect65" /></g><g
     id="MultiplayerLoadScreen.wnd:StaticTextSide7"><rect
       x="1171.33762"
       y="1862.33718"
       width="1354.46574"
       height="65.87559999999999"
       fill="#cd496b"
       id="rect66" /></g><g
     id="MultiplayerLoadScreen.wnd:StaticTextPlayerTitle"><rect
       x="287.57274000000007"
       y="1190.01335"
       width="864.5526"
       height="100.96828"
       fill="#77c090"
       id="rect67" /></g><g
     id="MultiplayerLoadScreen.wnd:StaticTextSideTitle"><rect
       x="1171.33762"
       y="1190.01335"
       width="1354.46574"
       height="97.36227"
       fill="#50139c"
       id="rect68" /></g><g
     id="MultiplayerLoadScreen.wnd:StaticTextTeamTitle"><rect
       x="2559.4248500000003"
       y="1190.01335"
       width="288.1842"
       height="86.54424"
       fill="#70f203"
       id="rect69" /></g><g
     id="MultiplayerLoadScreen.wnd:WinMapPreview"><rect
       x="2791.57929"
       y="432.72119999999995"
       width="771.68614"
       height="721.202"
       fill="#3a0cb2"
       id="rect70" /></g><g
     id="MultiplayerLoadScreen.wnd:ButtonMapStartPosition0"><rect
       x="2795.1852999999996"
       y="447.14523999999994"
       width="57.69616"
       height="61.30217"
       fill="#a61253"
       id="rect71" /><image
       href="extracted_images/PlayerStart.png"
       x="530"
       y="124"
       width="16"
       height="17"
       id="image71"
       transform="matrix(3.60601 0 0 3.60601 884 0)" /><image
       href="extracted_images/PlayerStartHilitePushed.png"
       x="530"
       y="124"
       width="16"
       height="17"
       id="image72"
       transform="matrix(3.60601 0 0 3.60601 884 0)" /></g><g
     id="MultiplayerLoadScreen.wnd:ButtonMapStartPosition1"><rect
       x="2791.5792899999997"
       y="515.65943"
       width="57.69616"
       height="61.30217"
       fill="#b29ea0"
       id="rect72" /><image
       href="extracted_images/PlayerStart.png"
       x="529"
       y="143"
       width="16"
       height="17"
       id="image73"
       transform="matrix(3.60601 0 0 3.60601 884 0)" /><image
       href="extracted_images/PlayerStartHilitePushed.png"
       x="529"
       y="143"
       width="16"
       height="17"
       id="image74"
       transform="matrix(3.60601 0 0 3.60601 884 0)" /></g><g
     id="MultiplayerLoadScreen.wnd:ButtonMapStartPosition2"><rect
       x="2820.42737"
       y="544.50751"
       width="57.69616"
       height="61.30217"
       fill="#9aeb81"
       id="rect74" /><image
       href="extracted_images/PlayerStart.png"
       x="537"
       y="151"
       width="16"
       height="17"
       id="image75"
       transform="matrix(3.60601 0 0 3.60601 884 0)" /><image
       href="extracted_images/PlayerStartHilitePushed.png"
       x="537"
       y="151"
       width="16"
       height="17"
       id="image76"
       transform="matrix(3.60601 0 0 3.60601 884 0)" /></g><g
     id="MultiplayerLoadScreen.wnd:ButtonMapStartPosition3"><rect
       x="2849.2754499999996"
       y="573.35559"
       width="57.69616"
       height="61.30217"
       fill="#069653"
       id="rect76" /><image
       href="extracted_images/PlayerStart.png"
       x="545"
       y="159"
       width="16"
       height="17"
       id="image77"
       transform="matrix(3.60601 0 0 3.60601 884 0)" /><image
       href="extracted_images/PlayerStartHilitePushed.png"
       x="545"
       y="159"
       width="16"
       height="17"
       id="image78"
       transform="matrix(3.60601 0 0 3.60601 884 0)" /></g><g
     id="MultiplayerLoadScreen.wnd:ButtonMapStartPosition4"><rect
       x="2878.12353"
       y="602.20367"
       width="57.69616"
       height="61.30217"
       fill="#b72226"
       id="rect78" /><image
       href="extracted_images/PlayerStart.png"
       x="553"
       y="167"
       width="16"
       height="17"
       id="image79"
       transform="matrix(3.60601 0 0 3.60601 884 0)" /><image
       href="extracted_images/PlayerStartHilitePushed.png"
       x="553"
       y="167"
       width="16"
       height="17"
       id="image80"
       transform="matrix(3.60601 0 0 3.60601 884 0)" /></g><g
     id="MultiplayerLoadScreen.wnd:ButtonMapStartPosition5"><rect
       x="2906.9716099999996"
       y="631.05175"
       width="57.69616"
       height="61.30217"
       fill="#861420"
       id="rect80" /><image
       href="extracted_images/PlayerStart.png"
       x="561"
       y="175"
       width="16"
       height="17"
       id="image81"
       transform="matrix(3.60601 0 0 3.60601 884 0)" /><image
       href="extracted_images/PlayerStartHilitePushed.png"
       x="561"
       y="175"
       width="16"
       height="17"
       id="image82"
       transform="matrix(3.60601 0 0 3.60601 884 0)" /></g><g
     id="MultiplayerLoadScreen.wnd:ButtonMapStartPosition6"><rect
       x="2935.81969"
       y="659.8998300000001"
       width="57.69616"
       height="61.30217"
       fill="#a32ab1"
       id="rect82" /><image
       href="extracted_images/PlayerStart.png"
       x="569"
       y="183"
       width="16"
       height="17"
       id="image83"
       transform="matrix(3.60601 0 0 3.60601 884 0)" /><image
       href="extracted_images/PlayerStartHilitePushed.png"
       x="569"
       y="183"
       width="16"
       height="17"
       id="image84"
       transform="matrix(3.60601 0 0 3.60601 884 0)" /></g><g
     id="MultiplayerLoadScreen.wnd:ButtonMapStartPosition7"><rect
       x="2964.6677699999996"
       y="688.74791"
       width="57.69616"
       height="61.30217"
       fill="#688586"
       id="rect84" /><image
       href="extracted_images/PlayerStart.png"
       x="577"
       y="191"
       width="16"
       height="17"
       id="image85"
       transform="matrix(3.60601 0 0 3.60601 884 0)" /><image
       href="extracted_images/PlayerStartHilitePushed.png"
       x="577"
       y="191"
       width="16"
       height="17"
       id="image86"
       transform="matrix(3.60601 0 0 3.60601 884 0)" /></g><g
     id="MultiplayerLoadScreen.wnd:AutoLabel_2"><rect
       x="211.84640999999988"
       y="295.69282"
       width="2596.3272"
       height="3.60601"
       fill="#c1ff14"
       id="rect86" /></g><g
     id="MultiplayerLoadScreen.wnd:LocalGeneralFeatures"><rect
       x="1098.9256999999998"
       y="432.72119999999995"
       width="1662.8156999999999"
       height="717.59599"
       fill="#d19b95"
       id="rect87" /></g><g
     id="MultiplayerLoadScreen.wnd:LocalGeneralPortrait"><rect
       x="280.36060000000003"
       y="425.50917999999996"
       width="789.71619"
       height="732.02003"
       fill="#0e7b57"
       id="rect88" /></g><g
     id="MultiplayerLoadScreen.wnd:LocalGeneralName"><rect
       x="258.7245399999998"
       y="158.66444"
       width="1619.09849"
       height="137.02838"
       fill="#236926"
       id="rect89" /></g></svg>
