<?xml version="1.0" encoding="UTF-8" standalone="no"?>
<svg
   width="3840"
   height="2160"
   viewBox="0 0 3840 2160"
   version="1.1"
   id="svg3"
   xml:space="preserve"
   xmlns:xlink="http://www.w3.org/1999/xlink"
   xmlns="http://www.w3.org/2000/svg"
   xmlns:svg="http://www.w3.org/2000/svg"><defs
     id="defs3" /><style
     id="style1">&#10;    text { font-family: Arial, sans-serif; font-size: 10px; fill: lightgray; text-anchor: middle; dominant-baseline: middle; pointer-events: none; }&#10;    rect { stroke: none; pointer-events: all; }&#10;  </style><image
     href="extracted_images/InGameUIChinaBase.png"
     x="0"
     y="1424"
     id="image1"
     width="3196"
     height="528"
     style="display:none" /><image
     width="4096"
     height="1024"
     preserveAspectRatio="none"
     xlink:href="../../../../../games/CNC.Generals.DE.REPACK-KaOs/Command%20and%20Conquer%20Generals%20Zero%20Hour/Art/Textures/sncommandbar.tga"
     id="image1-1"
     x="0"
     y="1136" /><g
     id="ImagePart"><rect
       id="ImagePart_rect"
       x="0.0"
       y="1446.001672337"
       width="3840.0"
       height="714.00096"
       fill="#808080"
       fill-opacity="0.15"
       style="stroke-width:4.315797956345964" /><text
       x="400"
       y="506"
       fill="red"
       id="text1"
       style="display:inline"
       transform="matrix(4 0 0 3.2337 0 226.25)">ImagePart</text></g><g
     id="MinMax"
     style="display:inline"><image
       id="MinMax_Hightlited"
       href="extracted_images/SNMaxMinH.png"
       x="3262"
       y="1540"
       visibility="hidden"
       width="171.79533"
       height="113.31182" /><image
       id="MinMax_Pushed"
       href="extracted_images/SNMaxMinP.png"
       x="3262"
       y="1540"
       visibility="hidden"
       width="171.79533"
       height="113.31182" /><image
       id="MinMax_Enable"
       href="extracted_images/SNMaxMin.png"
       x="3262"
       y="1540"
       visibility="visible"
       width="171.79533"
       height="113.31182" /><rect
       id="MinMax_rect"
       x="3262.0"
       y="1540.0"
       width="171.0"
       height="113.0"
       fill="#40e028"
       fill-opacity="0.25" /></g><g
     id="General"
     style="display:inline"><image
       id="General_Hightlited"
       href="extracted_images/SNGeneralH.png"
       x="3522"
       y="1540"
       visibility="hidden"
       width="212.00276"
       height="113.31182" /><image
       id="General_Pushed"
       href="extracted_images/SNGeneralP.png"
       x="3522"
       y="1540"
       visibility="hidden"
       width="212.00276"
       height="113.31182" /><image
       id="General_Disabled"
       href="extracted_images/SNGeneralI.png"
       x="3522"
       y="1540"
       visibility="hidden"
       width="212.00276"
       height="113.31182" /><image
       id="General_Enable"
       href="extracted_images/SNGeneral.png"
       x="3522"
       y="1540"
       visibility="visible"
       width="212.00276"
       height="113.31182" /><rect
       id="General_rect"
       x="3522"
       y="1540"
       width="212"
       height="113"
       fill="#b3bd1c"
       fill-opacity="0.25" /></g><g
     id="UAttack"
     style="display:inline"><image
       id="UAttack_Hightlited"
       href="extracted_images/SNUAttackH.png"
       x="348.70081"
       y="1512"
       visibility="hidden"
       width="124.75155"
       height="60.593609" /><image
       id="UAttack_Pushed"
       href="extracted_images/SNUAttackP.png"
       x="348.70081"
       y="1512"
       visibility="hidden"
       width="103.36557"
       height="49.90062" /><image
       id="UAttack_Enable"
       href="extracted_images/SNUAttackI.png"
       x="348.70081"
       y="1512"
       visibility="visible"
       width="124.75155"
       height="60.593609" /><rect
       id="UAttack_rect"
       x="348"
       y="1512"
       width="124.75155"
       height="60.59361"
       fill="#a4c418"
       fill-opacity="0.25" /></g><g
     id="Options"><image
       id="Options_Hightlited"
       href="extracted_images/SNOptionsH.png"
       x="184"
       y="490"
       visibility="hidden"
       transform="matrix(3.56523 0 0 3.56523 512.291 26.7734)" /><image
       id="Options_Pushed"
       href="extracted_images/SNOptionsP.png"
       x="184"
       y="490"
       visibility="hidden"
       transform="matrix(3.56523 0 0 3.56523 512.291 26.7734)" /><image
       id="Options_Disabled"
       href="extracted_images/SNOptionsI.png"
       x="184"
       y="490"
       visibility="hidden"
       transform="matrix(3.56523 0 0 3.56523 512.291 26.7734)" /><image
       id="Options_Enable"
       href="extracted_images/SNOptions.png"
       x="184"
       y="490"
       visibility="visible"
       transform="matrix(3.56523 0 0 3.56523 512.291 26.7734)" /><rect
       id="Options_rect"
       x="1168.29332"
       y="1773.7361"
       width="128.34828000000002"
       height="85.56552"
       fill="#dd7211"
       fill-opacity="0.25" /></g><g
     id="Worker"><image
       id="Worker_Hightlited"
       href="extracted_images/SNWorkerH.png"
       x="184"
       y="516"
       visibility="hidden"
       transform="matrix(3.56523 0 0 3.56523 512.291 31.5271)" /><image
       id="Worker_Pushed"
       href="extracted_images/SNWorkerP.png"
       x="184"
       y="516"
       visibility="hidden"
       transform="matrix(3.56523 0 0 3.56523 512.291 31.5271)" /><image
       id="Worker_Disabled"
       href="extracted_images/SNWorkerI.png"
       x="184"
       y="516"
       visibility="hidden"
       transform="matrix(3.56523 0 0 3.56523 512.291 31.5271)" /><image
       id="Worker_Enable"
       href="extracted_images/SNWorker.png"
       x="184"
       y="516"
       visibility="visible"
       transform="matrix(3.56523 0 0 3.56523 512.291 31.5271)" /><rect
       id="Worker_rect"
       x="1168.29332"
       y="1871.18578"
       width="128.34828000000002"
       height="85.56552"
       fill="#44de19"
       fill-opacity="0.25" /></g><g
     id="Chat"><image
       id="Chat_Hightlited"
       href="extracted_images/SNChatH.png"
       x="184"
       y="568"
       visibility="hidden"
       transform="matrix(3.56523 0 0 3.56523 512.291 26.7734)" /><image
       id="Chat_Pushed"
       href="extracted_images/SNChatP.png"
       x="184"
       y="568"
       visibility="hidden"
       transform="matrix(3.56523 0 0 3.56523 512.291 26.7734)" /><image
       id="Chat_Disabled"
       href="extracted_images/SNChatI.png"
       x="184"
       y="568"
       visibility="hidden"
       transform="matrix(3.56523 0 0 3.56523 512.291 26.7734)" /><image
       id="Chat_Enable"
       href="extracted_images/SNChat.png"
       x="184"
       y="568"
       visibility="visible"
       transform="matrix(3.56523 0 0 3.56523 512.291 26.7734)" /><rect
       id="Chat_rect"
       x="1168.29332"
       y="2051.82404"
       width="128.34828000000002"
       height="85.56552"
       fill="#9cfa33"
       fill-opacity="0.25" /></g><g
     id="Beacon"><image
       id="Beacon_Disabled"
       href="extracted_images/SNBeaconI.png"
       x="184"
       y="545"
       visibility="hidden"
       transform="matrix(3.56523 0 0 3.56523 512.291 18.4545)" /><image
       id="Beacon_Hightlited"
       href="extracted_images/SNBeaconH.png"
       x="184"
       y="545"
       visibility="hidden"
       transform="matrix(3.56523 0 0 3.56523 512.291 18.4545)" /><image
       id="Beacon_Pushed"
       href="extracted_images/SNBeaconP.png"
       x="184"
       y="545"
       visibility="hidden"
       transform="matrix(3.56523 0 0 3.56523 512.291 18.4545)" /><image
       id="Beacon_Enable"
       href="extracted_images/SNBeacon.png"
       x="184"
       y="545"
       visibility="visible"
       transform="matrix(3.56523 0 0 3.56523 512.291 18.4545)" /><rect
       id="Beacon_rect"
       x="1168.29332"
       y="1961.50485"
       width="128.34828000000002"
       height="74.86983000000001"
       fill="#ca8a1b"
       fill-opacity="0.25" /></g><g
     id="PowerBar"><text
       x="399"
       y="472"
       id="text2"
       transform="matrix(3.40895 0 0 3.69525 561.831 -32.3965)">PowerBar</text><rect
       id="PowerBar_rect"
       x="1448.1580000000001"
       y="1700.67575"
       width="947.6881"
       height="22.1715"
       fill="#ecca0e"
       fill-opacity="0.25" /></g><g
     id="Money"><text
       x="399.5"
       y="446.5"
       id="text3"
       transform="matrix(4 0 0 4 320 -172)">Money</text><rect
       id="Money_rect"
       x="1760.0"
       y="1576.0"
       width="316.0"
       height="76.0"
       fill="#ce6b0e"
       fill-opacity="0.25" /></g></svg>
