<svg width="800" height="600" viewBox="0 0 800 600" xmlns="http://www.w3.org/2000/svg">
  <style>
    rect { stroke: none; fill-opacity: 0.25; }
    text { font-family: Arial, sans-serif; font-size: 10px; fill: black; text-anchor: middle; dominant-baseline: middle; pointer-events: none; }
  </style>
  <g id="GeneralsExpPoints.wnd:GenExpParent">
    <rect x="210" y="3" width="394" height="431" fill="rgb(119,99,100)" />
    <image href="extracted_images/GeneralsPowerMenu_China.png" x="210" y="3" width="394" height="431" />
  </g>
  <g id="GeneralsExpPoints.wnd:AutoLabel_1">
    <rect x="237" y="3" width="350" height="34" fill="rgb(20,153,220)" />
  </g>
  <g id="GeneralsExpPoints.wnd:AutoLabel_2">
    <rect x="232" y="57" width="350" height="24" fill="rgb(206,11,214)" />
  </g>
  <g id="GeneralsExpPoints.wnd:StaticTextLevel">
    <rect x="515" y="9" width="69" height="26" fill="rgb(206,44,156)" />
  </g>
  <g id="GeneralsExpPoints.wnd:ButtonExit">
    <rect x="511" y="389" width="75" height="21" fill="rgb(245,236,64)" />
  </g>
  <g id="GeneralsExpPoints.wnd:StaticTextTitle">
    <rect x="324" y="6" width="160" height="25" fill="rgb(202,8,35)" />
  </g>
  <g id="GeneralsExpPoints.wnd:AutoLabel_3">
    <rect x="322" y="34" width="167" height="18" fill="rgb(231,219,219)" />
    <image href="extracted_images/ExperienceBar.png" x="322" y="34" width="167" height="18" />
  </g>
  <g id="GeneralsExpPoints.wnd:ProgressBarExperience">
    <rect x="324" y="39" width="161" height="8" fill="rgb(164,177,68)" />
  </g>
  <g id="GeneralsExpPoints.wnd:ButtonRank1Number0">
    <rect x="247" y="86" width="56" height="48" fill="rgb(36,154,45)" />
  </g>
  <g id="GeneralsExpPoints.wnd:ButtonRank1Number1">
    <rect x="315" y="86" width="56" height="48" fill="rgb(162,144,25)" />
  </g>
  <g id="GeneralsExpPoints.wnd:ButtonRank1Number2">
    <rect x="383" y="86" width="56" height="48" fill="rgb(252,36,249)" />
  </g>
  <g id="GeneralsExpPoints.wnd:ButtonRank1Number3">
    <rect x="451" y="86" width="56" height="48" fill="rgb(245,132,12)" />
  </g>
  <g id="GeneralsExpPoints.wnd:ButtonRank3Number0">
    <rect x="247" y="173" width="56" height="48" fill="rgb(167,65,5)" />
  </g>
  <g id="GeneralsExpPoints.wnd:ButtonRank3Number1">
    <rect x="247" y="225" width="56" height="48" fill="rgb(24,29,65)" />
  </g>
  <g id="GeneralsExpPoints.wnd:ButtonRank3Number2">
    <rect x="247" y="277" width="56" height="48" fill="rgb(45,40,205)" />
  </g>
  <g id="GeneralsExpPoints.wnd:ButtonRank3Number3">
    <rect x="315" y="173" width="56" height="48" fill="rgb(119,89,221)" />
  </g>
  <g id="GeneralsExpPoints.wnd:ButtonRank3Number4">
    <rect x="315" y="225" width="56" height="48" fill="rgb(202,163,95)" />
  </g>
  <g id="GeneralsExpPoints.wnd:ButtonRank3Number5">
    <rect x="315" y="277" width="56" height="48" fill="rgb(206,100,22)" />
  </g>
  <g id="GeneralsExpPoints.wnd:ButtonRank3Number6">
    <rect x="383" y="173" width="56" height="48" fill="rgb(151,175,19)" />
  </g>
  <g id="GeneralsExpPoints.wnd:ButtonRank3Number7">
    <rect x="383" y="225" width="56" height="48" fill="rgb(210,35,70)" />
  </g>
  <g id="GeneralsExpPoints.wnd:ButtonRank3Number8">
    <rect x="383" y="277" width="56" height="48" fill="rgb(1,249,181)" />
  </g>
  <g id="GeneralsExpPoints.wnd:ButtonRank3Number9">
    <rect x="451" y="173" width="56" height="48" fill="rgb(215,223,249)" />
  </g>
  <g id="GeneralsExpPoints.wnd:ButtonRank3Number10">
    <rect x="451" y="225" width="56" height="48" fill="rgb(51,48,219)" />
  </g>
  <g id="GeneralsExpPoints.wnd:ButtonRank3Number11">
    <rect x="451" y="278" width="56" height="48" fill="rgb(154,207,57)" />
  </g>
  <g id="GeneralsExpPoints.wnd:ButtonRank3Number12">
    <rect x="520" y="173" width="56" height="48" fill="rgb(121,15,194)" />
  </g>
  <g id="GeneralsExpPoints.wnd:ButtonRank3Number13">
    <rect x="520" y="225" width="56" height="48" fill="rgb(124,201,202)" />
  </g>
  <g id="GeneralsExpPoints.wnd:ButtonRank3Number14">
    <rect x="520" y="278" width="56" height="48" fill="rgb(32,54,209)" />
  </g>
  <g id="GeneralsExpPoints.wnd:ButtonRank8Number0">
    <rect x="247" y="360" width="56" height="48" fill="rgb(23,233,129)" />
  </g>
  <g id="GeneralsExpPoints.wnd:ButtonRank8Number1">
    <rect x="315" y="360" width="56" height="48" fill="rgb(15,32,7)" />
  </g>
  <g id="GeneralsExpPoints.wnd:ButtonRank8Number2">
    <rect x="383" y="360" width="56" height="48" fill="rgb(30,203,21)" />
  </g>
  <g id="GeneralsExpPoints.wnd:ButtonRank8Number3">
    <rect x="447" y="365" width="56" height="48" fill="rgb(249,135,124)" />
  </g>
  <g id="GeneralsExpPoints.wnd:StaticTextRankPointsAvailable">
    <rect x="539" y="33" width="23" height="26" fill="rgb(185,44,159)" />
  </g>
  <g id="GeneralsExpPoints.wnd:AutoLabel_4">
    <rect x="232" y="143" width="350" height="24" fill="rgb(187,84,154)" />
  </g>
  <g id="GeneralsExpPoints.wnd:AutoLabel_5">
    <rect x="231" y="331" width="350" height="24" fill="rgb(231,169,49)" />
  </g>
</svg>