<?xml version="1.0" encoding="UTF-8" standalone="no"?>
<svg
   width="3840"
   height="2160"
   viewBox="0 0 3840 2160"
   version="1.1"
   id="svg9"
   xml:space="preserve"
   xmlns="http://www.w3.org/2000/svg"
   xmlns:svg="http://www.w3.org/2000/svg"><defs
     id="defs9" /><style
     id="style1">&#10;    rect { stroke: none; fill-opacity: 0.25; }&#10;    text { font-family: Arial, sans-serif; font-size: 10px; fill: black; text-anchor: middle; dominant-baseline: middle; pointer-events: none; }&#10;  </style><g
     id="ReplayControl.wnd:ParentReplayControl"><rect
       x="31.50999999999999"
       y="1254.0"
       width="564.0"
       height="216.0"
       fill="#3a58e1"
       id="rect1" /></g><g
     id="ReplayControl.wnd:ButtonSlower"><rect
       x="55.50999999999999"
       y="1278.0"
       width="192.0"
       height="72.0"
       fill="#88f809"
       id="rect2" /></g><g
     id="ReplayControl.wnd:ButtonFaster"><rect
       x="379.51"
       y="1278.0"
       width="204.0"
       height="72.0"
       fill="#58c19d"
       id="rect3" /></g><g
     id="ReplayControl.wnd:ButtonPause"><rect
       x="55.50999999999999"
       y="1374.0"
       width="228.0"
       height="72.0"
       fill="#801db9"
       id="rect4" /></g><g
     id="ReplayControl.wnd:ButtonNextFrame"><rect
       x="331.51"
       y="1374.0"
       width="252.0"
       height="72.0"
       fill="#dafd7f"
       id="rect5" /></g><g
     id="ReplayControl.wnd:TextReplaySpeed"><rect
       x="259.51"
       y="1278.0"
       width="96.0"
       height="72.0"
       fill="#5513be"
       id="rect6" /><image
       href="extracted_images/TextEntryEnabledLeftEnd.png"
       x="488"
       y="392"
       width="32"
       height="24"
       id="image6"
       transform="matrix(3 0 0 3 -1204.49 102)" /><image
       href="extracted_images/TextEntryEnabledRightEnd.png"
       x="488"
       y="392"
       width="32"
       height="24"
       id="image7"
       transform="matrix(3 0 0 3 -1204.49 102)" /><image
       href="extracted_images/TextEntryEnabledRepeatingCenter.png"
       x="488"
       y="392"
       width="32"
       height="24"
       id="image8"
       transform="matrix(3 0 0 3 -1204.49 102)" /><image
       href="extracted_images/TextEntryEnabledSmallRepeatingCenter.png"
       x="488"
       y="392"
       width="32"
       height="24"
       id="image9"
       transform="matrix(3 0 0 3 -1204.49 102)" /></g></svg>
