<?xml version="1.0" encoding="UTF-8" standalone="no"?>
<svg
   width="3840"
   height="2160"
   viewBox="0 0 3840 2160"
   version="1.1"
   id="svg23"
   xml:space="preserve"
   sodipodi:docname="GenPowersShortcutBarUS_NEW.svg"
   inkscape:version="1.3 (0e150ed6c4, 2023-07-21)"
   xmlns:inkscape="http://www.inkscape.org/namespaces/inkscape"
   xmlns:sodipodi="http://sodipodi.sourceforge.net/DTD/sodipodi-0.dtd"
   xmlns="http://www.w3.org/2000/svg"
   xmlns:svg="http://www.w3.org/2000/svg"><sodipodi:namedview
     id="namedview1"
     pagecolor="#ffffff"
     bordercolor="#000000"
     borderopacity="0.25"
     inkscape:showpageshadow="2"
     inkscape:pageopacity="0.0"
     inkscape:pagecheckerboard="0"
     inkscape:deskcolor="#d1d1d1"
     inkscape:zoom="0.42526042"
     inkscape:cx="2307.9976"
     inkscape:cy="1080.5144"
     inkscape:window-width="2560"
     inkscape:window-height="1351"
     inkscape:window-x="-9"
     inkscape:window-y="-9"
     inkscape:window-maximized="1"
     inkscape:current-layer="svg23" /><defs
     id="defs23" /><style
     id="style1">&#10;    rect { stroke: none; fill-opacity: 0.25; }&#10;    text { font-family: Arial, sans-serif; font-size: 10px; fill: black; text-anchor: middle; dominant-baseline: middle; pointer-events: none; }&#10;  </style><g
     id="GenPowersShortcutBarUS.wnd:GenPowersShortcutBarParent"><rect
       x="3689.9999040000002"
       y="0.0"
       width="149.999976"
       height="1491.0"
       fill="#d346eb"
       id="rect1" /><image
       href="extracted_images/SATray.png"
       x="3672"
       y="0"
       width="168"
       height="1491"
       id="image1"
       transform="matrix(0.892857 0 0 1 411.429 0)" /></g><g
     id="GenPowersShortcutBarUS.wnd:ButtonParent1"><rect
       x="3689.9999040000002"
       y="1347.5"
       width="149.999976"
       height="143.5"
       fill="#d13f71"
       id="rect2" /><image
       href="extracted_images/SATraySmall.png"
       x="752"
       y="388"
       width="48"
       height="41"
       id="image2"
       transform="matrix(3.125 0 0 3.5 1340 -10.5)" /></g><g
     id="GenPowersShortcutBarUS.wnd:ButtonCommand1"><rect
       x="3693.1249035"
       y="1372.0"
       width="121.8749805"
       height="94.5"
       fill="#d71189"
       id="rect3" /></g><g
     id="GenPowersShortcutBarUS.wnd:ButtonParent2"><rect
       x="3689.9999040000002"
       y="1225.0"
       width="149.999976"
       height="143.5"
       fill="#e60179"
       id="rect4" /><image
       href="extracted_images/SATraySmall.png"
       x="752"
       y="353"
       width="48"
       height="41"
       id="image4"
       transform="matrix(3.125 0 0 3.5 1340 -10.5)" /></g><g
     id="GenPowersShortcutBarUS.wnd:ButtonCommand2"><rect
       x="3693.1249035"
       y="1249.5"
       width="121.8749805"
       height="94.5"
       fill="#9691c8"
       id="rect5" /></g><g
     id="GenPowersShortcutBarUS.wnd:ButtonParent3"><rect
       x="3689.9999040000002"
       y="1102.5"
       width="149.999976"
       height="143.5"
       fill="#d845dc"
       id="rect6" /><image
       href="extracted_images/SATraySmall.png"
       x="752"
       y="318"
       width="48"
       height="41"
       id="image6"
       transform="matrix(3.125 0 0 3.5 1340 -10.5)" /></g><g
     id="GenPowersShortcutBarUS.wnd:ButtonCommand3"><rect
       x="3693.1249035"
       y="1127.0"
       width="121.8749805"
       height="94.5"
       fill="#ca6043"
       id="rect7" /></g><g
     id="GenPowersShortcutBarUS.wnd:ButtonParent4"><rect
       x="3689.9999040000002"
       y="980.0"
       width="149.999976"
       height="143.5"
       fill="#a60ff8"
       id="rect8" /><image
       href="extracted_images/SATraySmall.png"
       x="752"
       y="283"
       width="48"
       height="41"
       id="image8"
       transform="matrix(3.125 0 0 3.5 1340 -10.5)" /></g><g
     id="GenPowersShortcutBarUS.wnd:ButtonCommand4"><rect
       x="3693.1249035"
       y="1004.5"
       width="121.8749805"
       height="94.5"
       fill="#71d548"
       id="rect9" /></g><g
     id="GenPowersShortcutBarUS.wnd:ButtonParent5"><rect
       x="3689.9999040000002"
       y="857.5"
       width="149.999976"
       height="143.5"
       fill="#626b8d"
       id="rect10" /><image
       href="extracted_images/SATraySmall.png"
       x="752"
       y="248"
       width="48"
       height="41"
       id="image10"
       transform="matrix(3.125 0 0 3.5 1340 -10.5)" /></g><g
     id="GenPowersShortcutBarUS.wnd:ButtonCommand5"><rect
       x="3693.1249035"
       y="882.0"
       width="121.8749805"
       height="94.5"
       fill="#3078d7"
       id="rect11" /></g><g
     id="GenPowersShortcutBarUS.wnd:ButtonParent6"><rect
       x="3689.9999040000002"
       y="735.0"
       width="149.999976"
       height="143.5"
       fill="#bcc7e9"
       id="rect12" /><image
       href="extracted_images/SATraySmall.png"
       x="752"
       y="213"
       width="48"
       height="41"
       id="image12"
       transform="matrix(3.125 0 0 3.5 1340 -10.5)" /></g><g
     id="GenPowersShortcutBarUS.wnd:ButtonCommand6"><rect
       x="3693.1249035"
       y="759.5"
       width="121.8749805"
       height="94.5"
       fill="#d7c3d1"
       id="rect13" /></g><g
     id="GenPowersShortcutBarUS.wnd:ButtonParent7"><rect
       x="3689.9999040000002"
       y="612.5"
       width="149.999976"
       height="143.5"
       fill="#0ec7bb"
       id="rect14" /><image
       href="extracted_images/SATraySmall.png"
       x="752"
       y="178"
       width="48"
       height="41"
       id="image14"
       transform="matrix(3.125 0 0 3.5 1340 -10.5)" /></g><g
     id="GenPowersShortcutBarUS.wnd:ButtonCommand7"><rect
       x="3693.1249035"
       y="637.0"
       width="121.8749805"
       height="94.5"
       fill="#bfa50b"
       id="rect15" /></g><g
     id="GenPowersShortcutBarUS.wnd:ButtonParent8"><rect
       x="3689.9999040000002"
       y="490.0"
       width="149.999976"
       height="143.5"
       fill="#a8a47f"
       id="rect16" /><image
       href="extracted_images/SATraySmall.png"
       x="752"
       y="143"
       width="48"
       height="41"
       id="image16"
       transform="matrix(3.125 0 0 3.5 1340 -10.5)" /></g><g
     id="GenPowersShortcutBarUS.wnd:ButtonCommand8"><rect
       x="3693.1249035"
       y="514.5"
       width="121.8749805"
       height="94.5"
       fill="#49b961"
       id="rect17" /></g><g
     id="GenPowersShortcutBarUS.wnd:ButtonParent9"><rect
       x="3689.9999040000002"
       y="367.5"
       width="149.999976"
       height="143.5"
       fill="#8ccf6d"
       id="rect18" /><image
       href="extracted_images/SATraySmall.png"
       x="752"
       y="108"
       width="48"
       height="41"
       id="image18"
       transform="matrix(3.125 0 0 3.5 1340 -10.5)" /></g><g
     id="GenPowersShortcutBarUS.wnd:ButtonCommand9"><rect
       x="3693.1249035"
       y="392.0"
       width="121.8749805"
       height="94.5"
       fill="#d28077"
       id="rect19" /></g><g
     id="GenPowersShortcutBarUS.wnd:ButtonParent10"><rect
       x="3689.9999040000002"
       y="245.0"
       width="149.999976"
       height="143.5"
       fill="#5b7d7f"
       id="rect20" /><image
       href="extracted_images/SATraySmall.png"
       x="752"
       y="73"
       width="48"
       height="41"
       id="image20"
       transform="matrix(3.125 0 0 3.5 1340 -10.5)" /></g><g
     id="GenPowersShortcutBarUS.wnd:ButtonCommand10"><rect
       x="3693.1249035"
       y="269.5"
       width="121.8749805"
       height="94.5"
       fill="#840cf3"
       id="rect21" /></g><g
     id="GenPowersShortcutBarUS.wnd:ButtonParent11"><rect
       x="3689.9999040000002"
       y="122.5"
       width="149.999976"
       height="143.5"
       fill="#ad98a5"
       id="rect22" /><image
       href="extracted_images/SATraySmall.png"
       x="752"
       y="38"
       width="48"
       height="41"
       id="image22"
       transform="matrix(3.125 0 0 3.5 1340 -10.5)" /></g><g
     id="GenPowersShortcutBarUS.wnd:ButtonCommand11"><rect
       x="3693.1249035"
       y="147.0"
       width="121.8749805"
       height="94.5"
       fill="#8ca46b"
       id="rect23" /></g></svg>
