<?xml version="1.0" encoding="UTF-8" standalone="no"?>
<svg
   width="3840"
   height="2160"
   viewBox="0 0 3840 2160"
   version="1.1"
   id="svg63"
   sodipodi:docname="MainMenu.svg"
   inkscape:version="1.3 (0e150ed6c4, 2023-07-21)"
   xmlns:inkscape="http://www.inkscape.org/namespaces/inkscape"
   xmlns:sodipodi="http://sodipodi.sourceforge.net/DTD/sodipodi-0.dtd"
   xmlns="http://www.w3.org/2000/svg"
   xmlns:svg="http://www.w3.org/2000/svg">
  <sodipodi:namedview
     id="namedview1"
     pagecolor="#ffffff"
     bordercolor="#000000"
     borderopacity="0.25"
     inkscape:showpageshadow="2"
     inkscape:pageopacity="0.0"
     inkscape:pagecheckerboard="0"
     inkscape:deskcolor="#d1d1d1"
     inkscape:zoom="0.38984375"
     inkscape:cx="1920"
     inkscape:cy="1081.2024"
     inkscape:window-width="2560"
     inkscape:window-height="1411"
     inkscape:window-x="-9"
     inkscape:window-y="-9"
     inkscape:window-maximized="1"
     inkscape:current-layer="svg63" />
  <defs
     id="defs63" />
  <style
     id="style1">&#10;    rect { stroke: none; fill-opacity: 0.25; }&#10;    text { font-family: Arial, sans-serif; font-size: 10px; fill: black; text-anchor: middle; dominant-baseline: middle; pointer-events: none; }&#10;  </style>
  <g
     id="MainMenu.wnd:MainMenuParent"
     style="display:none"
     sodipodi:insensitive="true">
    <rect
       x="0"
       y="0"
       width="3840"
       height="2160"
       fill="#f6101d"
       id="rect1" />
    <image
       href="..%5Cextracted_images%5CMainMenuBackdrop.png"
       x="0"
       y="0"
       width="800"
       height="599.74969"
       id="image1"
       transform="scale(4.8,3.6)" />
  </g>
  <g
     id="MainMenu.wnd:MainMenuRuler"
     style="display:none"
     sodipodi:insensitive="true">
    <rect
       x="0"
       y="0"
       width="3840"
       height="2160"
       fill="#3af307"
       id="rect2" />
    <image
       href="..%5Cextracted_images%5CMainMenuRuler.png"
       x="0"
       y="0"
       width="800"
       height="600"
       id="image2"
       transform="scale(4.8,3.6)" />
  </g>
  <g
     id="MainMenu.wnd:MapBorder4"
     transform="translate(0,42)">
    <rect
       x="2758.084"
       y="371.35715"
       width="734.71326"
       height="695.35364"
       fill="#9cb409"
       id="rect3" />
  </g>
  <g
     id="MainMenu.wnd:EarthMap4"
     transform="translate(0,42)">
    <rect
       x="2758.084"
       y="371.35715"
       width="734.71326"
       height="695.35364"
       fill="#91783f"
       id="rect4" />
    <image
       href="..%5Cextracted_images%5CBlackSquare.png"
       x="532"
       y="108"
       width="212"
       height="212"
       id="image4"
       transform="matrix(3.27997,0,0,3.27997,1013.14,17.1204)" />
  </g>
  <g
     id="MainMenu.wnd:ButtonDiffBack"
     transform="translate(0,42)">
    <rect
       x="2784.3237"
       y="922.39209"
       width="682.23376"
       height="118.07892"
       fill="#d435e7"
       id="rect5" />
  </g>
  <g
     id="MainMenu.wnd:ButtonHard"
     transform="translate(0,42)">
    <rect
       x="2784.3237"
       y="791.1933"
       width="682.23376"
       height="118.07892"
       fill="#0c9a89"
       id="rect6" />
  </g>
  <g
     id="MainMenu.wnd:ButtonMedium"
     transform="translate(0,42)">
    <rect
       x="2784.3237"
       y="659.99451"
       width="682.23376"
       height="114.79895"
       fill="#542834"
       id="rect7" />
  </g>
  <g
     id="MainMenu.wnd:ButtonEasy"
     transform="translate(0,42)">
    <rect
       x="2784.3237"
       y="528.79572"
       width="682.23376"
       height="114.79895"
       fill="#6c6e58"
       id="rect8" />
  </g>
  <g
     id="MainMenu.wnd:StaticTextSelectDifficulty"
     transform="translate(0,42)">
    <rect
       x="2784.3237"
       y="397.59692"
       width="708.47351"
       height="118.07892"
       fill="#e656bc"
       id="rect9" />
  </g>
  <g
     id="MainMenu.wnd:MapBorder1"
     transform="translate(0,42)">
    <rect
       x="2758.084"
       y="371.35715"
       width="734.71326"
       height="432.95605"
       fill="#52eddc"
       id="rect10" />
  </g>
  <g
     id="MainMenu.wnd:EarthMap1"
     transform="translate(0,42)">
    <rect
       x="2758.084"
       y="371.35715"
       width="734.71326"
       height="409.99625"
       fill="#b95e8d"
       id="rect11" />
    <image
       href="..%5Cextracted_images%5CBlackSquare.png"
       x="532"
       y="108"
       width="125"
       height="125"
       id="image11"
       transform="matrix(3.27997,0,0,3.27997,1013.14,17.1204)" />
  </g>
  <g
     id="MainMenu.wnd:ButtonMultiBack"
     transform="translate(0,42)">
    <rect
       x="2784.3237"
       y="659.99451"
       width="682.23376"
       height="118.07892"
       fill="#5d9fca"
       id="rect12" />
  </g>
  <g
     id="MainMenu.wnd:ButtonNetwork"
     transform="translate(0,42)">
    <rect
       x="2784.3237"
       y="528.79572"
       width="682.23376"
       height="114.79895"
       fill="#473d7f"
       id="rect13" />
  </g>
  <g
     id="MainMenu.wnd:ButtonOnline"
     transform="translate(0,42)">
    <rect
       x="2784.3237"
       y="397.59692"
       width="682.23376"
       height="114.79895"
       fill="#beb8be"
       id="rect14" />
  </g>
  <g
     id="MainMenu.wnd:MapBorder3"
     transform="translate(0,42)">
    <rect
       x="2758.084"
       y="371.35715"
       width="734.71326"
       height="432.95605"
       fill="#0c4b32"
       id="rect15" />
  </g>
  <g
     id="MainMenu.wnd:EarthMap3"
     transform="translate(0,42)">
    <rect
       x="2758.084"
       y="371.35715"
       width="734.71326"
       height="406.71628"
       fill="#d140c5"
       id="rect16" />
    <image
       href="..%5Cextracted_images%5CBlackSquare.png"
       x="532"
       y="108"
       width="124"
       height="124"
       id="image16"
       transform="matrix(3.27997,0,0,3.27997,1013.14,17.1204)" />
  </g>
  <g
     id="MainMenu.wnd:ButtonLoadReplayBack"
     transform="translate(0,42)">
    <rect
       x="2784.3237"
       y="659.99451"
       width="682.23376"
       height="118.07892"
       fill="#f6cba3"
       id="rect17" />
  </g>
  <g
     id="MainMenu.wnd:ButtonReplay"
     transform="translate(0,42)">
    <rect
       x="2784.3237"
       y="528.79572"
       width="682.23376"
       height="114.79895"
       fill="#a3b1c6"
       id="rect18" />
  </g>
  <g
     id="MainMenu.wnd:ButtonLoadGame"
     transform="translate(0,42)">
    <rect
       x="2784.3237"
       y="397.59692"
       width="682.23376"
       height="114.79895"
       fill="#1376f0"
       id="rect19" />
  </g>
  <g
     id="MainMenu.wnd:MapBorder"
     transform="translate(0,42)">
    <rect
       x="2758.084"
       y="371.35715"
       width="734.71326"
       height="826.55243"
       fill="#9b74c8"
       id="rect20" />
  </g>
  <g
     id="MainMenu.wnd:EarthMap"
     transform="translate(0,42)">
    <rect
       x="2758.084"
       y="371.35715"
       width="734.71326"
       height="800.31268"
       fill="#0fd0fa"
       id="rect21" />
    <image
       href="..%5Cextracted_images%5CBlackSquare.png"
       x="532"
       y="108"
       width="224"
       height="224"
       id="image21"
       transform="matrix(3.27997,0,0,3.27997,1013.14,17.1204)" />
  </g>
  <g
     id="MainMenu.wnd:ButtonSingleBack"
     transform="translate(0,42)">
    <rect
       x="2784.3237"
       y="1053.5909"
       width="682.23376"
       height="114.79895"
       fill="#9c5542"
       id="rect22" />
  </g>
  <g
     id="MainMenu.wnd:ButtonSkirmish"
     transform="translate(0,42)">
    <rect
       x="2784.3237"
       y="922.39209"
       width="682.23376"
       height="118.07892"
       fill="#e46b64"
       id="rect23" />
  </g>
  <g
     id="MainMenu.wnd:ButtonChina"
     transform="translate(0,42)">
    <rect
       x="2784.3237"
       y="659.99451"
       width="682.23376"
       height="114.79895"
       fill="#7a27df"
       id="rect24" />
  </g>
  <g
     id="MainMenu.wnd:ButtonGLA"
     transform="translate(0,42)">
    <rect
       x="2784.3237"
       y="528.79572"
       width="682.23376"
       height="118.07892"
       fill="#b6fd51"
       id="rect25" />
  </g>
  <g
     id="MainMenu.wnd:ButtonUSA"
     transform="translate(0,42)">
    <rect
       x="2784.3237"
       y="397.59692"
       width="682.23376"
       height="118.07892"
       fill="#eeeb5d"
       id="rect26" />
  </g>
  <g
     id="MainMenu.wnd:ButtonChallenge"
     transform="translate(0,42)">
    <rect
       x="2784.3237"
       y="791.1933"
       width="682.23376"
       height="118.07892"
       fill="#ac5ed5"
       id="rect27" />
  </g>
  <g
     id="MainMenu.wnd:ShellMenuScheme">
    <rect
       x="0.0"
       y="14.399999999999999"
       width="172.8"
       height="86.4"
       fill="#46d001"
       id="rect28" />
  </g>
  <g
     id="MainMenu.wnd:MapBorder2"
     transform="translate(0,42)">
    <rect
       x="2758.084"
       y="371.35715"
       width="734.71326"
       height="826.55243"
       fill="#7f82be"
       id="rect29" />
  </g>
  <g
     id="MainMenu.wnd:EarthMap2"
     transform="translate(0,42)">
    <rect
       x="2758.084"
       y="371.35715"
       width="734.71326"
       height="800.31268"
       fill="#3fc7ba"
       id="rect30" />
    <image
       href="..%5Cextracted_images%5CBlackSquare.png"
       x="532"
       y="108"
       width="224"
       height="224"
       id="image30"
       transform="matrix(3.27997,0,0,3.27997,1013.14,17.1204)" />
  </g>
  <g
     id="MainMenu.wnd:ButtonExit"
     transform="translate(0,42)">
    <rect
       x="2784.3237"
       y="1053.5909"
       width="682.23376"
       height="118.07892"
       fill="#5750c5"
       id="rect31" />
  </g>
  <g
     id="MainMenu.wnd:ButtonCredits"
     transform="translate(0,42)">
    <rect
       x="2784.3237"
       y="922.39209"
       width="682.23376"
       height="118.07892"
       fill="#7ce490"
       id="rect32" />
  </g>
  <g
     id="MainMenu.wnd:ButtonOptions"
     transform="translate(0,42)">
    <rect
       x="2784.3237"
       y="791.1933"
       width="682.23376"
       height="118.07892"
       fill="#cd19e5"
       id="rect33" />
  </g>
  <g
     id="MainMenu.wnd:ButtonLoadReplay"
     transform="translate(0,42)">
    <rect
       x="2784.3237"
       y="659.99451"
       width="682.23376"
       height="114.79895"
       fill="#fd6974"
       id="rect34" />
  </g>
  <g
     id="MainMenu.wnd:ButtonMultiplayer"
     transform="translate(0,42)">
    <rect
       x="2784.3237"
       y="528.79572"
       width="682.23376"
       height="118.07892"
       fill="#39b2f1"
       id="rect35" />
  </g>
  <g
     id="MainMenu.wnd:ButtonSinglePlayer"
     transform="translate(0,42)">
    <rect
       x="2784.3237"
       y="397.59692"
       width="682.23376"
       height="118.07892"
       fill="#33e21b"
       id="rect36" />
  </g>
  <g
     id="MainMenu.wnd:GreenDot">
    <rect
       x="229.55168"
       y="1856.5704400000002"
       width="49.11426"
       height="49.11426"
       fill="#ff6311"
       id="rect37" />
    <image
       href="..%5Cextracted_images%5CGreenDot.png"
       x="34"
       y="517"
       width="13"
       height="13"
       id="image37"
       transform="matrix(3.77802,0,0,3.77802,101.099,-96.6659)" />
  </g>
  <g
     id="MainMenu.wnd:Clock">
    <rect
       x="301.33406"
       y="1803.6781600000002"
       width="396.69210000000004"
       height="136.00872"
       fill="#b48c86"
       id="rect38" />
  </g>
  <g
     id="MainMenu.wnd:ButtonUSARecentSave"
     transform="translate(0,42)">
    <rect
       x="2456.3269"
       y="358.23727"
       width="301.75723"
       height="78.719276"
       fill="#70b04e"
       id="rect39" />
  </g>
  <g
     id="MainMenu.wnd:WinGrowMarker">
    <rect
       x="796.8000000000001"
       y="388.80000000000007"
       width="1396.8"
       height="1396.8"
       fill="#cfa14f"
       id="rect40" />
  </g>
  <g
     id="MainMenu.wnd:WinFactionTrainingSmall">
    <rect
       x="2429.6999200000005"
       y="1501.43656"
       width="362.68992000000003"
       height="362.68992000000003"
       fill="#117193"
       id="rect41" />
  </g>
  <g
     id="MainMenu.wnd:WinFactionTrainingMedium">
    <rect
       x="2339.0274400000003"
       y="1410.76408"
       width="544.03488"
       height="544.03488"
       fill="#6ed058"
       id="rect42" />
    <image
       href="..%5Cextracted_images%5CTraining144.png"
       x="472"
       y="399"
       width="144"
       height="129.80282"
       id="image42"
       transform="matrix(3.77802,0,0,3.77802,555.802,-96.6659)" />
  </g>
  <g
     id="MainMenu.wnd:WinFactionTraining">
    <rect
       x="2433.47794"
       y="1501.43656"
       width="362.68992000000003"
       height="362.68992000000003"
       fill="#5d1e0d"
       id="rect43" />
    <image
       href="..%5Cextracted_images%5CTraining96.png"
       x="497"
       y="423"
       width="96"
       height="86.709677"
       id="image43"
       transform="matrix(3.77802,0,0,3.77802,555.802,-96.6659)" />
  </g>
  <g
     id="MainMenu.wnd:WinFactionSkirmishSmall">
    <rect
       x="3118.8577800000003"
       y="1501.43656"
       width="362.68992000000003"
       height="362.68992000000003"
       fill="#3b3f08"
       id="rect44" />
  </g>
  <g
     id="MainMenu.wnd:WinFactionSkirmishMedium">
    <rect
       x="3031.96332"
       y="1410.76408"
       width="544.03488"
       height="544.03488"
       fill="#05ab58"
       id="rect45" />
    <image
       href="..%5Cextracted_images%5CSkirmish144.png"
       x="616"
       y="399"
       width="144"
       height="144"
       id="image45"
       transform="matrix(3.77802,0,0,3.77802,704.703,-96.6659)" />
  </g>
  <g
     id="MainMenu.wnd:WinFactionSkirmish">
    <rect
       x="3122.6358"
       y="1501.43656"
       width="362.68992000000003"
       height="362.68992000000003"
       fill="#d39216"
       id="rect46" />
    <image
       href="..%5Cextracted_images%5CSkirmish96.png"
       x="640"
       y="423"
       width="96"
       height="96"
       id="image46"
       transform="matrix(3.77802,0,0,3.77802,704.703,-96.6659)" />
  </g>
  <g
     id="MainMenu.wnd:WinFactionUSSmall">
    <rect
       x="358.00436"
       y="1501.43656"
       width="362.68992000000003"
       height="362.68992000000003"
       fill="#32aa3f"
       id="rect47" />
  </g>
  <g
     id="MainMenu.wnd:WinFactionUSMedium">
    <rect
       x="263.55386000000004"
       y="1410.76408"
       width="544.03488"
       height="544.03488"
       fill="#a14fbc"
       id="rect48" />
    <image
       href="..%5Cextracted_images%5CSAFactionLogo144_US.png"
       x="43"
       y="399"
       width="144"
       height="144"
       id="image48"
       transform="matrix(3.77802,0,0,3.77802,101.099,-96.6659)" />
  </g>
  <g
     id="MainMenu.wnd:WinFactionUS">
    <rect
       x="354.22634000000005"
       y="1501.43656"
       width="362.68992000000003"
       height="362.68992000000003"
       fill="#89728d"
       id="rect49" />
    <image
       href="..%5Cextracted_images%5CSAFactionLogo96_US.png"
       x="67"
       y="423"
       width="96"
       height="96"
       id="image49"
       transform="matrix(3.77802,0,0,3.77802,101.099,-96.6659)" />
  </g>
  <g
     id="MainMenu.wnd:WinFactionGLASmall">
    <rect
       x="1042.71826"
       y="1501.43656"
       width="362.68992000000003"
       height="362.68992000000003"
       fill="#ef3e48"
       id="rect50" />
  </g>
  <g
     id="MainMenu.wnd:WinFactionGLAMedium">
    <rect
       x="944.48974"
       y="1410.76408"
       width="544.03488"
       height="544.03488"
       fill="#127836"
       id="rect51" />
    <image
       href="..%5Cextracted_images%5CSUFactionLogo144_GLA.png"
       x="187"
       y="399"
       width="144"
       height="144"
       id="image51"
       transform="matrix(3.77802,0,0,3.77802,238,-96.6659)" />
  </g>
  <g
     id="MainMenu.wnd:WinFactionGLA">
    <rect
       x="1035.1622200000002"
       y="1501.43656"
       width="362.68992000000003"
       height="362.68992000000003"
       fill="#43a20a"
       id="rect52" />
    <image
       href="..%5Cextracted_images%5CSUFactionLogo96_GLA.png"
       x="211"
       y="423"
       width="96"
       height="96"
       id="image52"
       transform="matrix(3.77802,0,0,3.77802,238,-96.6659)" />
  </g>
  <g
     id="MainMenu.wnd:WinFactionChinaSmall">
    <rect
       x="1711.9970200000002"
       y="1501.43656"
       width="362.68992000000003"
       height="362.68992000000003"
       fill="#489bd7"
       id="rect53" />
  </g>
  <g
     id="MainMenu.wnd:WinFactionChinaMedium">
    <rect
       x="1625.10256"
       y="1410.76408"
       width="544.03488"
       height="544.03488"
       fill="#b2af8a"
       id="rect54" />
    <image
       href="..%5Cextracted_images%5CSNFactionLogo144_China.png"
       x="328"
       y="399"
       width="144"
       height="137"
       id="image54"
       transform="matrix(3.77802,0,0,3.77802,385.912,-96.6659)" />
  </g>
  <g
     id="MainMenu.wnd:WinFactionChina">
    <rect
       x="1715.77504"
       y="1501.43656"
       width="362.68992000000003"
       height="362.68992000000003"
       fill="#5efc60"
       id="rect55" />
    <image
       href="..%5Cextracted_images%5CSNFactionLogo96_China.png"
       x="352"
       y="423"
       width="96"
       height="96"
       id="image55"
       transform="matrix(3.77802,0,0,3.77802,385.912,-96.6659)" />
  </g>
  <g
     id="MainMenu.wnd:ButtonUSALoadGame"
     transform="translate(0,42)">
    <rect
       x="2456.3269"
       y="450.07645"
       width="301.75723"
       height="78.719276"
       fill="#327672"
       id="rect56" />
  </g>
  <g
     id="MainMenu.wnd:ButtonGLARecentSave"
     transform="translate(0,42)">
    <rect
       x="2456.3269"
       y="476.31619"
       width="301.75723"
       height="78.719276"
       fill="#a52b14"
       id="rect57" />
  </g>
  <g
     id="MainMenu.wnd:ButtonGLALoadGame"
     transform="translate(0,42)">
    <rect
       x="2456.3269"
       y="568.15533"
       width="301.75723"
       height="78.719276"
       fill="#10c4fe"
       id="rect58" />
  </g>
  <g
     id="MainMenu.wnd:ButtonChinaRecentSave"
     transform="translate(0,42)">
    <rect
       x="2456.3269"
       y="607.51501"
       width="301.75723"
       height="78.719276"
       fill="#fa9911"
       id="rect59" />
  </g>
  <g
     id="MainMenu.wnd:ButtonChinaLoadGame"
     transform="translate(0,42)">
    <rect
       x="2456.3269"
       y="699.35419"
       width="301.75723"
       height="78.719276"
       fill="#314fab"
       id="rect60" />
  </g>
  <g
     id="MainMenu.wnd:ButtonGetMapPack">
    <rect
       x="282.4439600000001"
       y="1267.1993200000002"
       width="861.38856"
       height="120.89664"
       fill="#facd3d"
       id="rect61" />
  </g>
  <g
     id="MainMenu.wnd:ButtonGetUpdate">
    <rect
       x="3053.2813399999995"
       y="122.07944"
       width="554.31493"
       height="95.11913"
       fill="#66cfe0"
       id="rect62" />
  </g>
  <g
     id="MainMenu.wnd:Logo">
    <rect
       x="2666.24488"
       y="69.59992"
       width="941.35139"
       height="308.31718"
       fill="#4f740a"
       id="rect63" />
    <image
       href="..%5Cextracted_images%5CGeneralsLogo.png"
       x="504"
       y="16"
       width="289.83333"
       height="94"
       id="image63"
       transform="matrix(3.27997,0,0,3.27997,1013.14,17.1204)" />
  </g>
</svg>
