<?xml version="1.0" encoding="UTF-8" standalone="no"?>
<svg
   width="3840"
   height="2160"
   viewBox="0 0 3840 2160"
   version="1.1"
   id="svg3"
   xml:space="preserve"
   xmlns:xlink="http://www.w3.org/1999/xlink"
   xmlns="http://www.w3.org/2000/svg"
   xmlns:svg="http://www.w3.org/2000/svg"><defs
     id="defs3" /><style
     id="style1">&#10;    text { font-family: Arial, sans-serif; font-size: 10px; fill: lightgray; text-anchor: middle; dominant-baseline: middle; pointer-events: none; }&#10;    rect { stroke: none; pointer-events: all; }&#10;  </style><image
     width="3840"
     height="714"
     preserveAspectRatio="xMidYMid"
     xlink:href="sacommandbar_new_crop.png"
     id="image1-6"
     x="0.0018502553"
     y="1446.1539"
     style="display:inline" /><g
     id="ImagePart"
     style="display:inline"><rect
       id="ImagePart_rect"
       x="0.003681310000274607"
       y="1446.000525444"
       width="3839.9964"
       height="714.000083083"
       fill="#808080"
       fill-opacity="0.15"
       style="display:inline" /><text
       x="639.99939"
       y="566.79944"
       fill="red"
       id="text1"
       style="stroke-width:1.6"
       transform="matrix(3 0 0 2.33639 0.00366211 478.736)">ImagePart</text></g><g
     id="MinMax"
     style="display:inline"><image
       id="MinMax_Hightlited"
       href="extracted_images/SAMinMaxH.png"
       x="1025.8618"
       y="531.51483"
       visibility="hidden"
       width="81.914627"
       height="35.268799"
       transform="matrix(3 0 0 3 212.834 -29.9297)" /><image
       id="MinMax_Pushed"
       href="extracted_images/SAMinMaxP.png"
       x="1025.8618"
       y="531.51483"
       visibility="hidden"
       width="81.914627"
       height="35.268799"
       transform="matrix(3 0 0 3 212.834 -29.9297)" /><image
       id="MinMax_Enable"
       href="extracted_images/SAMinMax.png"
       x="1025.8618"
       y="531.51483"
       visibility="visible"
       width="81.914627"
       height="35.268799"
       transform="matrix(3 0 0 3 212.834 -29.9297)" /><rect
       id="MinMax_rect"
       x="3290.4206000000004"
       y="1564.6153299999999"
       width="245.74394999999998"
       height="105.806418"
       fill="#7224f7"
       fill-opacity="0.25" /></g><g
     id="General"
     style="display:inline"><image
       id="General_Hightlited"
       href="extracted_images/SAGeneralH.png"
       x="1108.9142"
       y="531.51483"
       visibility="hidden"
       width="91.016251"
       height="35.268799"
       transform="matrix(3 0 0 3 228.353 -28.8212)" /><image
       id="General_Pushed"
       href="extracted_images/SAGeneralP.png"
       x="1108.9142"
       y="531.51483"
       visibility="hidden"
       width="91.016251"
       height="35.268799"
       transform="matrix(3 0 0 3 228.353 -28.8212)" /><image
       id="General_Disabled"
       href="extracted_images/SAGeneralI.png"
       x="1108.9142"
       y="531.51483"
       visibility="hidden"
       width="91.016251"
       height="35.268799"
       transform="matrix(3 0 0 3 228.353 -28.8212)" /><image
       id="General_Enable"
       href="extracted_images/SAGeneral.png"
       x="1108.9142"
       y="531.51483"
       visibility="visible"
       width="91.016251"
       height="35.268799"
       transform="matrix(3 0 0 3 228.353 -28.8212)" /><rect
       id="General_rect"
       x="3555.0962"
       y="1565.7238299999997"
       width="273.04884300000003"
       height="105.806418"
       fill="#7f0474"
       fill-opacity="0.25" /></g><g
     id="UAttack"
     style="display:inline"><image
       id="UAttack_Hightlited"
       href="extracted_images/SAUAttackH.png"
       x="157.42934"
       y="509.63394"
       visibility="hidden"
       width="37.992939"
       height="19.539225"
       transform="matrix(3.27718 0 0 3.27718 -12.5677 -183.247)" /><image
       id="UAttack_Pushed"
       href="extracted_images/SAUAttackP.png"
       x="157.42934"
       y="509.63394"
       visibility="hidden"
       width="189.96469"
       height="24.966789"
       style="display:none"
       transform="matrix(3.27718 0 0 3.27718 -12.5677 -183.247)" /><image
       id="UAttack_Enable"
       href="extracted_images/SAUAttackI.png"
       x="157.42934"
       y="509.63394"
       visibility="visible"
       width="37.992939"
       height="19.539225"
       transform="matrix(3.27718 0 0 3.27718 -12.5677 -183.247)" /><rect
       id="UAttack_rect"
       x="503.3572726690001"
       y="1486.9171545689996"
       width="124.50987352256"
       height="64.03364914654"
       fill="#485b8e"
       fill-opacity="0.25" /></g><g
     id="Options"><image
       id="Options_Hightlited"
       href="extracted_images/SAOptionsH.png"
       x="364.80301"
       y="602.26837"
       visibility="hidden"
       width="30.095524"
       height="21.243898"
       transform="matrix(3 0 0 3 73.6803 -3.65027)" /><image
       id="Options_Pushed"
       href="extracted_images/SAOptionsP.png"
       x="364.80301"
       y="602.26837"
       visibility="hidden"
       width="30.095524"
       height="21.243898"
       transform="matrix(3 0 0 3 73.6803 -3.65027)" /><image
       id="Options_Disabled"
       href="extracted_images/SAOptionsI.png"
       x="364.80301"
       y="602.26837"
       visibility="hidden"
       width="30.095524"
       height="21.243898"
       transform="matrix(3 0 0 3 73.6803 -3.65027)" /><image
       id="Options_Enable"
       href="extracted_images/SAOptions.png"
       x="364.80301"
       y="602.26837"
       visibility="visible"
       width="30.095524"
       height="21.243898"
       transform="matrix(3 0 0 3 73.6803 -3.65027)" /><rect
       id="Options_rect"
       x="1168.0891499999998"
       y="1803.1539400000001"
       width="95.597493"
       height="63.731661"
       fill="#5941b5"
       fill-opacity="0.25" /></g><g
     id="Chat"><image
       id="Chat_Hightlited"
       href="extracted_images/SAChatH.png"
       x="364.80301"
       y="684.46039"
       visibility="hidden"
       width="30.095524"
       height="21.243898"
       transform="matrix(3 0 0 3 73.6803 -3.65027)" /><image
       id="Chat_Pushed"
       href="extracted_images/SAChatP.png"
       x="364.80301"
       y="684.46039"
       visibility="hidden"
       width="30.095524"
       height="21.243898"
       transform="matrix(3 0 0 3 73.6803 -3.65027)" /><image
       id="Chat_Disabled"
       href="extracted_images/SAChatI.png"
       x="364.80301"
       y="684.46039"
       visibility="hidden"
       width="30.095524"
       height="21.243898"
       transform="matrix(3 0 0 3 73.6803 -3.65027)" /><image
       id="Chat_Enable"
       href="extracted_images/SAChat.png"
       x="364.80301"
       y="684.46039"
       visibility="visible"
       width="30.095524"
       height="21.243898"
       transform="matrix(3 0 0 3 73.6803 -3.65027)" /><rect
       id="Chat_rect"
       x="1168.0891499999998"
       y="2049.72997"
       width="95.597493"
       height="63.731661"
       fill="#fd15b7"
       fill-opacity="0.25" /></g><g
     id="Worker"><image
       id="Worker_Hightlited"
       href="extracted_images/SAWorkerH.png"
       x="364.80301"
       y="629.32855"
       visibility="hidden"
       width="30.095524"
       height="21.243898"
       transform="matrix(3 0 0 3 73.6803 -3.65027)" /><image
       id="Worker_Pushed"
       href="extracted_images/SAWorkerP.png"
       x="364.80301"
       y="629.32855"
       visibility="hidden"
       width="30.095524"
       height="21.243898"
       transform="matrix(3 0 0 3 73.6803 -3.65027)" /><image
       id="Worker_Disabled"
       href="extracted_images/SAWorkerI.png"
       x="364.80301"
       y="629.32855"
       visibility="hidden"
       width="30.095524"
       height="21.243898"
       transform="matrix(3 0 0 3 73.6803 -3.65027)" /><image
       id="Worker_Enable"
       href="extracted_images/SAWorker.png"
       x="364.80301"
       y="629.32855"
       visibility="visible"
       width="30.095524"
       height="21.243898"
       transform="matrix(3 0 0 3 73.6803 -3.65027)" /><rect
       id="Worker_rect"
       x="1168.0891499999998"
       y="1884.3344800000002"
       width="95.597493"
       height="63.731661"
       fill="#0eb62d"
       fill-opacity="0.25" /></g><g
     id="Beacon"><image
       id="Beacon_Hightlited"
       href="extracted_images/SABeaconH.png"
       x="364.80301"
       y="656.51544"
       visibility="hidden"
       width="30.095524"
       height="21.243898"
       transform="matrix(3 0 0 3 73.6803 -3.65027)" /><image
       id="Beacon_Pushed"
       href="extracted_images/SABeaconP.png"
       x="364.80301"
       y="656.51544"
       visibility="hidden"
       width="30.095524"
       height="21.243898"
       transform="matrix(3 0 0 3 73.6803 -3.65027)" /><image
       id="Beacon_Disabled"
       href="extracted_images/SABeaconI.png"
       x="364.80301"
       y="656.51544"
       visibility="hidden"
       width="30.095524"
       height="21.243898"
       transform="matrix(3 0 0 3 73.6803 -3.65027)" /><image
       id="Beacon_Enable"
       href="extracted_images/SABeacon.png"
       x="364.80301"
       y="656.51544"
       visibility="visible"
       width="30.095524"
       height="21.243898"
       transform="matrix(3 0 0 3 73.6803 -3.65027)" /><rect
       id="Beacon_rect"
       x="1168.0891499999998"
       y="1965.8951499999998"
       width="95.597493"
       height="55.76520599999999"
       fill="#f90354"
       fill-opacity="0.25" /></g><g
     id="PowerBar"><text
       x="598.5"
       y="579.29657"
       id="text2"
       style="stroke-width:1.5"
       transform="matrix(3.17164 0 0 3 16.308 -25.0827)">PowerBar</text><rect
       id="PowerBar_rect"
       x="1424.0810744248"
       y="1703.10003"
       width="984.9171527664001"
       height="17.1377922"
       fill="#76d924"
       fill-opacity="0.25"
       style="stroke-width:0.6627319810796066" /></g><g
     id="Money"><text
       x="1917.6"
       y="1613.6"
       id="text3"
       style="stroke-width:4.8"
       transform="matrix(0.9375 0 0 0.9375 120.827 101.745)">Money</text><rect
       id="Money_rect"
       x="1740.827"
       y="1588.43467"
       width="355.5"
       height="54.396119999999996"
       fill="#0a399f"
       fill-opacity="0.25"
       style="stroke-width:0.747777" /></g></svg>
