<?xml version="1.0" encoding="UTF-8" standalone="no"?>
<svg
   width="3840"
   height="2160"
   viewBox="0 0 3840 2160"
   version="1.1"
   id="svg30"
   xmlns="http://www.w3.org/2000/svg"
   xmlns:svg="http://www.w3.org/2000/svg">
  <defs
     id="defs30" />
  <style
     id="style1">&#10;    rect { stroke: none; fill-opacity: 0.25; }&#10;    text { font-family: Arial, sans-serif; font-size: 10px; fill: black; text-anchor: middle; dominant-baseline: middle; pointer-events: none; }&#10;  </style>
  <g
     id="SkirmishMapSelectMenu.wnd:SkirmishMapSelectMenuParent">
    <rect
       x="1755.6000000000001"
       y="36.0"
       width="2084.4"
       height="1123.2"
       fill="#a0e041"
       id="rect1" />
  </g>
  <g
     id="SkirmishMapSelectMenu.wnd:WinGadgetBorder">
    <rect
       x="1762.7999999999997"
       y="399.6"
       width="1810.8"
       height="691.2"
       fill="#52920c"
       id="rect2" />
  </g>
  <g
     id="SkirmishMapSelectMenu.wnd:ButtonOK">
    <rect
       x="3084.0"
       y="864.0"
       width="460.8"
       height="97.2"
       fill="#916b10"
       id="rect3" />
  </g>
  <g
     id="SkirmishMapSelectMenu.wnd:ListboxMap">
    <rect
       x="1787.9999999999998"
       y="518.4000000000001"
       width="1238.4"
       height="550.8000000000001"
       fill="#9a52ab"
       id="rect4" />
    <image
       href="extracted_images/BlackSquare.png"
       x="230"
       y="144"
       width="344"
       height="153"
       id="image4"
       transform="matrix(3.6 0 0 3.6 960 0)" />
    <image
       href="extracted_images/ListBoxHiliteItemLeftEnd.png"
       x="230"
       y="144"
       width="344"
       height="153"
       id="image5"
       transform="matrix(3.6 0 0 3.6 960 0)" />
    <image
       href="extracted_images/ListBoxHiliteItemRightEnd.png"
       x="230"
       y="144"
       width="344"
       height="153"
       id="image6"
       transform="matrix(3.6 0 0 3.6 960 0)" />
    <image
       href="extracted_images/ListBoxHiliteItemRepeatingCenter.png"
       x="230"
       y="144"
       width="344"
       height="153"
       id="image7"
       transform="matrix(3.6 0 0 3.6 960 0)" />
    <image
       href="extracted_images/ListBoxHiliteItemSmallRepeatingCenter.png"
       x="230"
       y="144"
       width="344"
       height="153"
       id="image8"
       transform="matrix(3.6 0 0 3.6 960 0)" />
  </g>
  <g
     id="SkirmishMapSelectMenu.wnd:ButtonBack">
    <rect
       x="3084.0"
       y="979.2"
       width="460.8"
       height="93.60000000000001"
       fill="#3a1768"
       id="rect8" />
  </g>
  <g
     id="SkirmishMapSelectMenu.wnd:RadioButtonSystemMaps">
    <rect
       x="1788.0000000000002"
       y="424.8"
       width="579.6"
       height="75.60000000000001"
       fill="#74b37a"
       id="rect9" />
    <image
       href="extracted_images/RadioButtonEnabledLeft.png"
       x="230"
       y="118"
       width="161"
       height="21"
       id="image9"
       transform="matrix(3.6 0 0 3.6 960 0)" />
    <image
       href="extracted_images/RadioButtonEnabledMiddle.png"
       x="230"
       y="118"
       width="161"
       height="21"
       id="image10"
       transform="matrix(3.6 0 0 3.6 960 0)" />
    <image
       href="extracted_images/RadioButtonEnabledRight.png"
       x="230"
       y="118"
       width="161"
       height="21"
       id="image11"
       transform="matrix(3.6 0 0 3.6 960 0)" />
  </g>
  <g
     id="SkirmishMapSelectMenu.wnd:RadioButtonUserMaps">
    <rect
       x="2428.8"
       y="424.8"
       width="594.0"
       height="75.60000000000001"
       fill="#eba8e9"
       id="rect11" />
    <image
       href="extracted_images/RadioButtonEnabledLeft.png"
       x="408"
       y="118"
       width="165"
       height="21"
       id="image12"
       transform="matrix(3.6 0 0 3.6 960 0)" />
    <image
       href="extracted_images/RadioButtonEnabledMiddle.png"
       x="408"
       y="118"
       width="165"
       height="21"
       id="image13"
       transform="matrix(3.6 0 0 3.6 960 0)" />
    <image
       href="extracted_images/RadioButtonEnabledRight.png"
       x="408"
       y="118"
       width="165"
       height="21"
       id="image14"
       transform="matrix(3.6 0 0 3.6 960 0)" />
  </g>
  <g
     id="SkirmishMapSelectMenu.wnd:WinMapPreview">
    <rect
       x="3087.6"
       y="432.0"
       width="450.0"
       height="414.0"
       fill="#68168d"
       id="rect14" />
  </g>
  <g
     id="SkirmishMapSelectMenu.wnd:ButtonMapStartPosition0">
    <rect
       x="3091.2"
       y="446.4"
       width="57.6"
       height="61.2"
       fill="#3131c1"
       id="rect15" />
    <image
       href="extracted_images/PlayerStart.png"
       x="592"
       y="124"
       width="16"
       height="17"
       id="image15"
       transform="matrix(3.6 0 0 3.6 960 0)" />
    <image
       href="extracted_images/PlayerStartHilitePushed.png"
       x="592"
       y="124"
       width="16"
       height="17"
       id="image16"
       transform="matrix(3.6 0 0 3.6 960 0)" />
  </g>
  <g
     id="SkirmishMapSelectMenu.wnd:ButtonMapStartPosition1">
    <rect
       x="3087.6"
       y="514.8"
       width="57.6"
       height="61.2"
       fill="#6b1873"
       id="rect16" />
    <image
       href="extracted_images/PlayerStart.png"
       x="591"
       y="143"
       width="16"
       height="17"
       id="image17"
       transform="matrix(3.6 0 0 3.6 960 0)" />
    <image
       href="extracted_images/PlayerStartHilitePushed.png"
       x="591"
       y="143"
       width="16"
       height="17"
       id="image18"
       transform="matrix(3.6 0 0 3.6 960 0)" />
  </g>
  <g
     id="SkirmishMapSelectMenu.wnd:ButtonMapStartPosition2">
    <rect
       x="3116.4"
       y="543.6"
       width="57.6"
       height="61.2"
       fill="#391b69"
       id="rect18" />
    <image
       href="extracted_images/PlayerStart.png"
       x="599"
       y="151"
       width="16"
       height="17"
       id="image19"
       transform="matrix(3.6 0 0 3.6 960 0)" />
    <image
       href="extracted_images/PlayerStartHilitePushed.png"
       x="599"
       y="151"
       width="16"
       height="17"
       id="image20"
       transform="matrix(3.6 0 0 3.6 960 0)" />
  </g>
  <g
     id="SkirmishMapSelectMenu.wnd:ButtonMapStartPosition3">
    <rect
       x="3145.2"
       y="572.4"
       width="57.6"
       height="61.2"
       fill="#a1b0ed"
       id="rect20" />
    <image
       href="extracted_images/PlayerStart.png"
       x="607"
       y="159"
       width="16"
       height="17"
       id="image21"
       transform="matrix(3.6 0 0 3.6 960 0)" />
    <image
       href="extracted_images/PlayerStartHilitePushed.png"
       x="607"
       y="159"
       width="16"
       height="17"
       id="image22"
       transform="matrix(3.6 0 0 3.6 960 0)" />
  </g>
  <g
     id="SkirmishMapSelectMenu.wnd:ButtonMapStartPosition4">
    <rect
       x="3177.6"
       y="612.0"
       width="57.6"
       height="61.2"
       fill="#b9da2f"
       id="rect22" />
    <image
       href="extracted_images/PlayerStart.png"
       x="616"
       y="170"
       width="16"
       height="17"
       id="image23"
       transform="matrix(3.6 0 0 3.6 960 0)" />
    <image
       href="extracted_images/PlayerStartHilitePushed.png"
       x="616"
       y="170"
       width="16"
       height="17"
       id="image24"
       transform="matrix(3.6 0 0 3.6 960 0)" />
  </g>
  <g
     id="SkirmishMapSelectMenu.wnd:ButtonMapStartPosition5">
    <rect
       x="3202.7999999999997"
       y="630.0"
       width="57.6"
       height="61.2"
       fill="#5d2871"
       id="rect24" />
    <image
       href="extracted_images/PlayerStart.png"
       x="623"
       y="175"
       width="16"
       height="17"
       id="image25"
       transform="matrix(3.6 0 0 3.6 960 0)" />
    <image
       href="extracted_images/PlayerStartHilitePushed.png"
       x="623"
       y="175"
       width="16"
       height="17"
       id="image26"
       transform="matrix(3.6 0 0 3.6 960 0)" />
  </g>
  <g
     id="SkirmishMapSelectMenu.wnd:ButtonMapStartPosition6">
    <rect
       x="3231.6"
       y="658.8"
       width="57.6"
       height="61.2"
       fill="#5f1863"
       id="rect26" />
    <image
       href="extracted_images/PlayerStart.png"
       x="631"
       y="183"
       width="16"
       height="17"
       id="image27"
       transform="matrix(3.6 0 0 3.6 960 0)" />
    <image
       href="extracted_images/PlayerStartHilitePushed.png"
       x="631"
       y="183"
       width="16"
       height="17"
       id="image28"
       transform="matrix(3.6 0 0 3.6 960 0)" />
  </g>
  <g
     id="SkirmishMapSelectMenu.wnd:ButtonMapStartPosition7">
    <rect
       x="3260.4"
       y="687.6"
       width="57.6"
       height="61.2"
       fill="#a4f98a"
       id="rect28" />
    <image
       href="extracted_images/PlayerStart.png"
       x="639"
       y="191"
       width="16"
       height="17"
       id="image29"
       transform="matrix(3.6 0 0 3.6 960 0)" />
    <image
       href="extracted_images/PlayerStartHilitePushed.png"
       x="639"
       y="191"
       width="16"
       height="17"
       id="image30"
       transform="matrix(3.6 0 0 3.6 960 0)" />
  </g>
  <g
     id="SkirmishMapSelectMenu.wnd:AutoLabel_1">
    <rect
       x="1755.6000000000004"
       y="320.40000000000003"
       width="1818.0"
       height="82.8"
       fill="#cf0c8f"
       id="rect30" />
  </g>
</svg>
